<svg xmlns="https://www.w3.org/2000/svg" width="1920" height="700"><path d="M879,304L1049,172L891,102Z" fill="#c2c2c2" stroke="#c2c2c2" stroke-width="1.51"/><path d="M879,304L1075,373L1049,172Z" fill="#bbbbbb" stroke="#bbbbbb" stroke-width="1.51"/><path d="M1049,172L903,-47L891,102Z" fill="#cbcbcb" stroke="#cbcbcb" stroke-width="1.51"/><path d="M891,102L638,130L879,304Z" fill="#c9c9c9" stroke="#c9c9c9" stroke-width="1.51"/><path d="M669,-72L638,130L891,102Z" fill="#d6d6d6" stroke="#d6d6d6" stroke-width="1.51"/><path d="M1049,172L1085,-97L903,-47Z" fill="#d0d0d0" stroke="#d0d0d0" stroke-width="1.51"/><path d="M1246,352L1260,155L1049,172Z" fill="#c4c4c4" stroke="#c4c4c4" stroke-width="1.51"/><path d="M1075,373L1246,352L1049,172Z" fill="#bdbdbd" stroke="#bdbdbd" stroke-width="1.51"/><path d="M879,304L1028,524L1075,373Z" fill="#b8b8b8" stroke="#b8b8b8" stroke-width="1.51"/><path d="M876,610L1028,524L879,304Z" fill="#bbbbbb" stroke="#bbbbbb" stroke-width="1.51"/><path d="M1260,155L1085,-97L1049,172Z" fill="#cecece" stroke="#cecece" stroke-width="1.51"/><path d="M1270,595L1246,352L1075,373Z" fill="#bebebe" stroke="#bebebe" stroke-width="1.51"/><path d="M638,130L627,360L879,304Z" fill="#c6c6c6" stroke="#c6c6c6" stroke-width="1.51"/><path d="M903,-47L669,-72L891,102Z" fill="#d7d7d7" stroke="#d7d7d7" stroke-width="1.51"/><path d="M835,-323L669,-72L903,-47Z" fill="#d2d2d2" stroke="#d2d2d2" stroke-width="1.51"/><path d="M627,360L876,610L879,304Z" fill="#bfbfbf" stroke="#bfbfbf" stroke-width="1.51"/><path d="M1260,155L1269,-67L1085,-97Z" fill="#d6d6d6" stroke="#d6d6d6" stroke-width="1.51"/><path d="M627,360L606,536L876,610Z" fill="#c6c6c6" stroke="#c6c6c6" stroke-width="1.51"/><path d="M364,379L606,536L627,360Z" fill="#cbcbcb" stroke="#cbcbcb" stroke-width="1.51"/><path d="M1028,524L1270,595L1075,373Z" fill="#bfbfbf" stroke="#bfbfbf" stroke-width="1.51"/><path d="M1246,352L1457,384L1260,155Z" fill="#c1c1c1" stroke="#c1c1c1" stroke-width="1.51"/><path d="M1260,155L1488,-61L1269,-67Z" fill="#d8d8d8" stroke="#d8d8d8" stroke-width="1.51"/><path d="M1237,769L1270,595L1028,524Z" fill="#c5c5c5" stroke="#c5c5c5" stroke-width="1.51"/><path d="M638,130L439,82L627,360Z" fill="#d3d3d3" stroke="#d3d3d3" stroke-width="1.51"/><path d="M669,-72L439,82L638,130Z" fill="#dddddd" stroke="#dddddd" stroke-width="1.51"/><path d="M1042,-330L903,-47L1085,-97Z" fill="#cccccc" stroke="#cccccc" stroke-width="1.51"/><path d="M1042,-330L835,-323L903,-47Z" fill="#c8c8c8" stroke="#c8c8c8" stroke-width="1.51"/><path d="M669,-72L382,-56L439,82Z" fill="#e6e6e6" stroke="#e6e6e6" stroke-width="1.51"/><path d="M876,610L1016,795L1028,524Z" fill="#c1c1c1" stroke="#c1c1c1" stroke-width="1.51"/><path d="M682,764L869,743L876,610Z" fill="#cacaca" stroke="#cacaca" stroke-width="1.51"/><path d="M1273,-327L1042,-330L1085,-97Z" fill="#c9c9c9" stroke="#c9c9c9" stroke-width="1.51"/><path d="M1270,595L1457,384L1246,352Z" fill="#c1c1c1" stroke="#c1c1c1" stroke-width="1.51"/><path d="M1457,384L1510,148L1260,155Z" fill="#c9c9c9" stroke="#c9c9c9" stroke-width="1.51"/><path d="M1269,-67L1273,-327L1085,-97Z" fill="#d0d0d0" stroke="#d0d0d0" stroke-width="1.51"/><path d="M869,743L1016,795L876,610Z" fill="#c6c6c6" stroke="#c6c6c6" stroke-width="1.51"/><path d="M835,-323L629,-302L669,-72Z" fill="#d1d1d1" stroke="#d1d1d1" stroke-width="1.51"/><path d="M439,82L364,379L627,360Z" fill="#d1d1d1" stroke="#d1d1d1" stroke-width="1.51"/><path d="M606,536L682,764L876,610Z" fill="#cbcbcb" stroke="#cbcbcb" stroke-width="1.51"/><path d="M1510,148L1488,-61L1260,155Z" fill="#d5d5d5" stroke="#d5d5d5" stroke-width="1.51"/><path d="M453,804L682,764L606,536Z" fill="#d4d4d4" stroke="#d4d4d4" stroke-width="1.51"/><path d="M871,1029L1063,961L1016,795Z" fill="#b7b7b7" stroke="#b7b7b7" stroke-width="1.51"/><path d="M439,82L204,326L364,379Z" fill="#d8d8d8" stroke="#d8d8d8" stroke-width="1.51"/><path d="M629,-302L382,-56L669,-72Z" fill="#dedede" stroke="#dedede" stroke-width="1.51"/><path d="M1488,-61L1273,-327L1269,-67Z" fill="#d4d4d4" stroke="#d4d4d4" stroke-width="1.51"/><path d="M1270,595L1536,525L1457,384Z" fill="#c6c6c6" stroke="#c6c6c6" stroke-width="1.51"/><path d="M1016,795L1237,769L1028,524Z" fill="#c6c6c6" stroke="#c6c6c6" stroke-width="1.51"/><path d="M364,379L403,564L606,536Z" fill="#d1d1d1" stroke="#d1d1d1" stroke-width="1.51"/><path d="M1759,389L1762,170L1510,148Z" fill="#cbcbcb" stroke="#cbcbcb" stroke-width="1.51"/><path d="M1553,831L1536,525L1270,595Z" fill="#cccccc" stroke="#cccccc" stroke-width="1.51"/><path d="M364,379L199,586L403,564Z" fill="#d8d8d8" stroke="#d8d8d8" stroke-width="1.51"/><path d="M164,95L204,326L439,82Z" fill="#dfdfdf" stroke="#dfdfdf" stroke-width="1.51"/><path d="M629,-302L405,-325L382,-56Z" fill="#dcdcdc" stroke="#dcdcdc" stroke-width="1.51"/><path d="M382,-56L164,95L439,82Z" fill="#eaeaea" stroke="#eaeaea" stroke-width="1.51"/><path d="M835,-323L405,-325L629,-302Z" fill="#d0d0d0" stroke="#d0d0d0" stroke-width="1.51"/><path d="M1042,-330L405,-325L835,-323Z" fill="#c9c9c9" stroke="#c9c9c9" stroke-width="1.51"/><path d="M1016,795L1063,961L1237,769Z" fill="#c0c0c0" stroke="#c0c0c0" stroke-width="1.51"/><path d="M1553,831L1713,585L1536,525Z" fill="#d0d0d0" stroke="#d0d0d0" stroke-width="1.51"/><path d="M871,1029L1016,795L869,743Z" fill="#bebebe" stroke="#bebebe" stroke-width="1.51"/><path d="M682,764L871,1029L869,743Z" fill="#c3c3c3" stroke="#c3c3c3" stroke-width="1.51"/><path d="M403,564L453,804L606,536Z" fill="#d6d6d6" stroke="#d6d6d6" stroke-width="1.51"/><path d="M227,835L453,804L403,564Z" fill="#e0e0e0" stroke="#e0e0e0" stroke-width="1.51"/><path d="M1488,-61L1557,-355L1273,-327Z" fill="#d1d1d1" stroke="#d1d1d1" stroke-width="1.51"/><path d="M1510,148L1672,-42L1488,-61Z" fill="#dddddd" stroke="#dddddd" stroke-width="1.51"/><path d="M1762,170L1672,-42L1510,148Z" fill="#d7d7d7" stroke="#d7d7d7" stroke-width="1.51"/><path d="M204,-71L164,95L382,-56Z" fill="#ededed" stroke="#ededed" stroke-width="1.51"/><path d="M239,-282L204,-71L382,-56Z" fill="#e9e9e9" stroke="#e9e9e9" stroke-width="1.51"/><path d="M453,804L620,958L682,764Z" fill="#cecece" stroke="#cecece" stroke-width="1.51"/><path d="M1759,389L1510,148L1457,384Z" fill="#c7c7c7" stroke="#c7c7c7" stroke-width="1.51"/><path d="M620,958L871,1029L682,764Z" fill="#c2c2c2" stroke="#c2c2c2" stroke-width="1.51"/><path d="M204,326L199,586L364,379Z" fill="#d4d4d4" stroke="#d4d4d4" stroke-width="1.51"/><path d="M453,804L382,1036L620,958Z" fill="#cccccc" stroke="#cccccc" stroke-width="1.51"/><path d="M1,581L199,586L204,326Z" fill="#d2d2d2" stroke="#d2d2d2" stroke-width="1.51"/><path d="M1273,-327L1557,-355L1042,-330Z" fill="#c8c8c8" stroke="#c8c8c8" stroke-width="1.51"/><path d="M1042,-330L-248,-357L405,-325Z" fill="#d9d9d9" stroke="#d9d9d9" stroke-width="1.51"/><path d="M1672,-42L1557,-355L1488,-61Z" fill="#dadada" stroke="#dadada" stroke-width="1.51"/><path d="M1751,-259L1557,-355L1672,-42Z" fill="#d4d4d4" stroke="#d4d4d4" stroke-width="1.51"/><path d="M1536,525L1759,389L1457,384Z" fill="#c7c7c7" stroke="#c7c7c7" stroke-width="1.51"/><path d="M1713,585L1759,389L1536,525Z" fill="#c8c8c8" stroke="#c8c8c8" stroke-width="1.51"/><path d="M405,-325L239,-282L382,-56Z" fill="#e3e3e3" stroke="#e3e3e3" stroke-width="1.51"/><path d="M18,-136L-22,88L164,95Z" fill="#e3e3e3" stroke="#e3e3e3" stroke-width="1.51"/><path d="M1553,831L1270,595L1237,769Z" fill="#cdcdcd" stroke="#cdcdcd" stroke-width="1.51"/><path d="M1340,1050L1553,831L1237,769Z" fill="#c4c4c4" stroke="#c4c4c4" stroke-width="1.51"/><path d="M1340,1050L1237,769L1063,961Z" fill="#bdbdbd" stroke="#bdbdbd" stroke-width="1.51"/><path d="M871,1029L1340,1050L1063,961Z" fill="#b4b4b4" stroke="#b4b4b4" stroke-width="1.51"/><path d="M1919,-120L1751,-259L1672,-42Z" fill="#d5d5d5" stroke="#d5d5d5" stroke-width="1.51"/><path d="M199,586L227,835L403,564Z" fill="#dedede" stroke="#dedede" stroke-width="1.51"/><path d="M164,95L-22,88L204,326Z" fill="#dadada" stroke="#dadada" stroke-width="1.51"/><path d="M199,586L-8,820L227,835Z" fill="#dbdbdb" stroke="#dbdbdb" stroke-width="1.51"/><path d="M18,-136L164,95L204,-71Z" fill="#eaeaea" stroke="#eaeaea" stroke-width="1.51"/><path d="M239,-282L18,-136L204,-71Z" fill="#e3e3e3" stroke="#e3e3e3" stroke-width="1.51"/><path d="M227,835L382,1036L453,804Z" fill="#d5d5d5" stroke="#d5d5d5" stroke-width="1.51"/><path d="M620,958L382,1036L871,1029Z" fill="#c0c0c0" stroke="#c0c0c0" stroke-width="1.51"/><path d="M871,1029L382,1036L1340,1050Z" fill="#b4b4b4" stroke="#b4b4b4" stroke-width="1.51"/><path d="M-72,375L1,581L204,326Z" fill="#cccccc" stroke="#cccccc" stroke-width="1.51"/><path d="M227,835L206,954L382,1036Z" fill="#d3d3d3" stroke="#d3d3d3" stroke-width="1.51"/><path d="M1769,974L1759,805L1553,831Z" fill="#c7c7c7" stroke="#c7c7c7" stroke-width="1.51"/><path d="M1553,831L1759,805L1713,585Z" fill="#d1d1d1" stroke="#d1d1d1" stroke-width="1.51"/><path d="M1917,537L1939,387L1759,389Z" fill="#bdbdbd" stroke="#bdbdbd" stroke-width="1.51"/><path d="M1759,389L1939,387L1762,170Z" fill="#bfbfbf" stroke="#bfbfbf" stroke-width="1.51"/><path d="M1917,537L1759,389L1713,585Z" fill="#c3c3c3" stroke="#c3c3c3" stroke-width="1.51"/><path d="M1762,170L1919,-120L1672,-42Z" fill="#d8d8d8" stroke="#d8d8d8" stroke-width="1.51"/><path d="M-22,88L-72,375L204,326Z" fill="#cfcfcf" stroke="#cfcfcf" stroke-width="1.51"/><path d="M1340,1050L1552,1031L1553,831Z" fill="#c0c0c0" stroke="#c0c0c0" stroke-width="1.51"/><path d="M1917,787L1917,537L1713,585Z" fill="#c6c6c6" stroke="#c6c6c6" stroke-width="1.51"/><path d="M1976,104L1919,-120L1762,170Z" fill="#d1d1d1" stroke="#d1d1d1" stroke-width="1.51"/><path d="M1939,387L1976,104L1762,170Z" fill="#c3c3c3" stroke="#c3c3c3" stroke-width="1.51"/><path d="M-8,820L206,954L227,835Z" fill="#d3d3d3" stroke="#d3d3d3" stroke-width="1.51"/><path d="M1,581L-8,820L199,586Z" fill="#d6d6d6" stroke="#d6d6d6" stroke-width="1.51"/><path d="M-251,747L-8,820L1,581Z" fill="#d3d3d3" stroke="#d3d3d3" stroke-width="1.51"/><path d="M1759,805L1917,787L1713,585Z" fill="#cccccc" stroke="#cccccc" stroke-width="1.51"/><path d="M1552,1031L1769,974L1553,831Z" fill="#c5c5c5" stroke="#c5c5c5" stroke-width="1.51"/><path d="M1939,387L2132,383L1976,104Z" fill="#b9b9b9" stroke="#b9b9b9" stroke-width="1.51"/><path d="M1917,537L2132,383L1939,387Z" fill="#b9b9b9" stroke="#b9b9b9" stroke-width="1.51"/><path d="M1769,974L1917,787L1759,805Z" fill="#c3c3c3" stroke="#c3c3c3" stroke-width="1.51"/><path d="M-238,181L-205,357L-72,375Z" fill="#c5c5c5" stroke="#c5c5c5" stroke-width="1.51"/><path d="M-242,-81L-238,181L-22,88Z" fill="#d8d8d8" stroke="#d8d8d8" stroke-width="1.51"/><path d="M239,-282L-72,-326L18,-136Z" fill="#dadada" stroke="#dadada" stroke-width="1.51"/><path d="M405,-325L-72,-326L239,-282Z" fill="#dbdbdb" stroke="#dbdbdb" stroke-width="1.51"/><path d="M-248,-357L-72,-326L405,-325Z" fill="#d4d4d4" stroke="#d4d4d4" stroke-width="1.51"/><path d="M-72,375L-279,578L1,581Z" fill="#cacaca" stroke="#cacaca" stroke-width="1.51"/><path d="M-238,181L-72,375L-22,88Z" fill="#cecece" stroke="#cecece" stroke-width="1.51"/><path d="M2111,-124L1977,-328L1919,-120Z" fill="#c9c9c9" stroke="#c9c9c9" stroke-width="1.51"/><path d="M1919,-120L1977,-328L1751,-259Z" fill="#cbcbcb" stroke="#cbcbcb" stroke-width="1.51"/><path d="M1751,-259L1977,-328L1557,-355Z" fill="#cbcbcb" stroke="#cbcbcb" stroke-width="1.51"/><path d="M-242,-81L-22,88L18,-136Z" fill="#e2e2e2" stroke="#e2e2e2" stroke-width="1.51"/><path d="M2184,529L2132,383L1917,537Z" fill="#b7b7b7" stroke="#b7b7b7" stroke-width="1.51"/><path d="M1976,104L2111,-124L1919,-120Z" fill="#d2d2d2" stroke="#d2d2d2" stroke-width="1.51"/><path d="M-72,-326L-242,-81L18,-136Z" fill="#d8d8d8" stroke="#d8d8d8" stroke-width="1.51"/><path d="M2181,134L2111,-124L1976,104Z" fill="#cacaca" stroke="#cacaca" stroke-width="1.51"/><path d="M2132,383L2181,134L1976,104Z" fill="#bcbcbc" stroke="#bcbcbc" stroke-width="1.51"/><path d="M206,954L-25,999L382,1036Z" fill="#cccccc" stroke="#cccccc" stroke-width="1.51"/><path d="M-8,820L-25,999L206,954Z" fill="#cccccc" stroke="#cccccc" stroke-width="1.51"/><path d="M-263,984L-25,999L-8,820Z" fill="#c5c5c5" stroke="#c5c5c5" stroke-width="1.51"/><path d="M-205,357L-279,578L-72,375Z" fill="#c4c4c4" stroke="#c4c4c4" stroke-width="1.51"/><path d="M-238,181L-279,578L-205,357Z" fill="#c0c0c0" stroke="#c0c0c0" stroke-width="1.51"/><path d="M-242,-81L-279,578L-238,181Z" fill="#c8c8c8" stroke="#c8c8c8" stroke-width="1.51"/><path d="M2181,134L2130,-265L2111,-124Z" fill="#cacaca" stroke="#cacaca" stroke-width="1.51"/><path d="M2111,-124L2130,-265L1977,-328Z" fill="#c3c3c3" stroke="#c3c3c3" stroke-width="1.51"/><path d="M2132,383L2184,529L2181,134Z" fill="#aeaeae" stroke="#aeaeae" stroke-width="1.51"/><path d="M1917,787L2184,529L1917,537Z" fill="#c0c0c0" stroke="#c0c0c0" stroke-width="1.51"/><path d="M2215,819L2184,529L1917,787Z" fill="#bfbfbf" stroke="#bfbfbf" stroke-width="1.51"/><path d="M-279,578L-251,747L1,581Z" fill="#cdcdcd" stroke="#cdcdcd" stroke-width="1.51"/><path d="M1769,974L1955,1040L1917,787Z" fill="#bbbbbb" stroke="#bbbbbb" stroke-width="1.51"/><path d="M1552,1031L1955,1040L1769,974Z" fill="#bababa" stroke="#bababa" stroke-width="1.51"/><path d="M1340,1050L1955,1040L1552,1031Z" fill="#bfbfbf" stroke="#bfbfbf" stroke-width="1.51"/><path d="M-242,-81L-248,-357L-279,578Z" fill="#d6d6d6" stroke="#d6d6d6" stroke-width="1.51"/><path d="M-72,-326L-248,-357L-242,-81Z" fill="#d1d1d1" stroke="#d1d1d1" stroke-width="1.51"/><path d="M1557,-355L-248,-357L1042,-330Z" fill="#c7c7c7" stroke="#c7c7c7" stroke-width="1.51"/><path d="M2184,529L2215,819L2181,134Z" fill="#b3b3b3" stroke="#b3b3b3" stroke-width="1.51"/><path d="M2169,1028L2215,819L1917,787Z" fill="#b6b6b6" stroke="#b6b6b6" stroke-width="1.51"/><path d="M-279,578L-263,984L-251,747Z" fill="#cbcbcb" stroke="#cbcbcb" stroke-width="1.51"/><path d="M-251,747L-263,984L-8,820Z" fill="#c9c9c9" stroke="#c9c9c9" stroke-width="1.51"/><path d="M-25,999L-263,984L382,1036Z" fill="#c6c6c6" stroke="#c6c6c6" stroke-width="1.51"/><path d="M1955,1040L2169,1028L1917,787Z" fill="#b5b5b5" stroke="#b5b5b5" stroke-width="1.51"/></svg>